<svg viewBox="0 0 67.4861 67.4494" xmlns="http://www.w3.org/2000/svg" xmlns:xlink="http://www.w3.org/1999/xlink" width="67.486115" height="67.449402" fill="none" customFrame="#000000">
	<g id="Group">
		<path id="Vector" d="M28.7285 43.8995C28.5969 43.9342 28.4735 43.9946 28.3653 44.0771C28.2571 44.1596 28.1663 44.2626 28.0979 44.3803C28.0296 44.498 27.9851 44.6279 27.9671 44.7628C27.949 44.8977 27.9577 45.0347 27.9927 45.1662C28.273 46.1824 28.2104 47.2627 27.8146 48.2397C27.4188 49.2168 26.712 50.0361 25.8035 50.5707C25.6086 50.6831 25.4578 50.8585 25.376 51.068C25.2969 51.2692 25.2823 51.49 25.3344 51.6998C25.3864 51.9096 25.5024 52.0981 25.6664 52.239C25.8303 52.38 26.034 52.4664 26.2493 52.4864C26.4645 52.5063 26.6806 52.4589 26.8677 52.3505C28.1607 51.5839 29.1661 50.414 29.7297 49.0205C30.2985 47.627 30.3918 46.0849 29.9952 44.633C29.9236 44.3691 29.7505 44.1442 29.5137 44.0075C29.3965 43.9373 29.2663 43.8915 29.131 43.873C28.9957 43.8544 28.8602 43.8634 28.7285 43.8995Z" fill="rgb(255,255,255)" fill-rule="nonzero" />
		<path id="Vector" d="M21.3728 66.213C23.2801 67.1716 25.4148 67.5858 27.5423 67.41C30.3431 67.1944 33.028 66.2004 35.2941 64.5402C37.5602 62.88 39.3173 60.6196 40.3673 58.014L44.5522 47.6888C45.614 45.0919 45.9288 42.2501 45.4613 39.4838C44.9937 36.7175 43.7624 34.137 41.9063 32.0333C40.6093 30.5478 38.9555 29.4172 37.1005 28.748C35.2456 28.0787 33.2508 27.893 31.3043 28.2083C29.3877 28.5024 27.5772 29.2782 26.0424 30.4632C24.5076 31.6481 23.2988 33.2033 22.5293 34.983L22.41 35.2463C21.3949 37.7263 21.2234 40.4712 21.9218 43.0583C22.0529 43.5311 22.0243 44.0339 21.8405 44.4888C21.6566 44.9436 21.3276 45.325 20.9048 45.5738C18.6108 46.9262 16.8279 48.9986 15.8333 51.4688L15.7163 51.7523C15.0184 53.5685 14.7947 55.5325 15.0663 57.4591C15.3379 59.3857 16.0959 61.2114 17.2688 62.7638C18.3489 64.218 19.7544 65.3992 21.3728 66.213ZM25.9988 46.17C26.553 44.8088 26.6478 43.3038 26.2688 41.8838L26.2395 41.8905C25.802 40.2801 25.8967 38.5715 26.5095 37.0193L26.6175 36.7943C27.0767 35.6998 27.8112 34.7426 28.7494 34.0156C29.6877 33.2887 30.798 32.8166 31.9725 32.6453C33.1699 32.4491 34.3976 32.5617 35.5394 32.9724C36.6812 33.383 37.6993 34.0782 38.4975 34.992C39.8026 36.4706 40.6683 38.2846 40.9967 40.2293C41.3251 42.1739 41.1032 44.1716 40.356 45.9968L36.171 56.3198C35.4339 58.1489 34.201 59.7361 32.611 60.9027C31.021 62.0694 29.137 62.7692 27.171 62.9235C25.9647 63.0208 24.7535 62.8096 23.6514 62.3097C22.5493 61.8098 21.5924 61.0377 20.871 60.066C20.1591 59.1479 19.6927 58.0635 19.516 56.9152C19.3392 55.7669 19.4579 54.5925 19.8608 53.5028L19.9845 53.2058C20.6145 51.6285 21.7485 50.3033 23.211 49.437C24.471 48.6788 25.4475 47.5335 26.001 46.17M53.676 16.0673C53.6093 15.9201 53.5083 15.7909 53.3815 15.6907C53.2546 15.5905 53.1057 15.5221 52.947 15.4913C52.6785 15.4393 52.4003 15.4933 52.1708 15.642C52.0567 15.7164 51.9585 15.8125 51.8817 15.9248C51.8048 16.0372 51.7509 16.1636 51.723 16.2968C51.408 17.7885 51.588 19.2938 52.227 20.6618C52.863 22.0261 53.9326 23.1416 55.269 23.8343C55.5119 23.9623 55.7957 23.9886 56.0579 23.9073C56.3201 23.8261 56.5394 23.644 56.6674 23.4012C56.7954 23.1583 56.8217 22.8745 56.7404 22.6123C56.6592 22.35 56.4771 22.1308 56.2343 22.0028C55.2994 21.516 54.5505 20.7354 54.1029 19.7812C53.6553 18.827 53.5337 17.7521 53.757 16.722C53.796 16.5006 53.7678 16.2725 53.676 16.0673Z" fill="rgb(255,255,255)" fill-rule="nonzero" />
		<path id="Vector" d="M55.5464 39.0102L55.8321 39.0102C57.7548 39.0136 59.6483 38.5395 61.3425 37.6304C63.0367 36.7212 64.4785 35.4055 65.5386 33.8015C66.6234 32.1876 67.2793 30.3241 67.4447 28.3866C67.61 26.449 67.2793 24.5013 66.4836 22.727L66.3756 22.502C65.2474 20.0746 63.3491 18.0877 60.9756 16.85C60.5398 16.6223 60.1906 16.2582 59.9813 15.8133C59.7721 15.3683 59.7143 14.8671 59.8169 14.3862C60.3719 11.7654 60.0502 9.03477 58.9011 6.61473L58.7886 6.38973C57.9269 4.6454 56.6349 3.14937 55.0347 2.04278C53.4344 0.936183 51.5786 0.255514 49.6424 0.0649824C47.6826 -0.143137 45.7021 0.151044 43.8875 0.919812C42.0728 1.68858 40.4837 2.90663 39.2699 4.45923C37.5304 6.66378 36.4412 9.31038 36.1252 12.1007C35.8091 14.8911 36.2788 17.7142 37.4811 20.252L42.2309 30.332C43.4195 32.8764 45.2962 35.0376 47.6489 36.5712C50.0016 38.1048 52.7387 38.9497 55.5464 39.0102ZM45.3044 5.21973C46.2796 4.74827 47.3487 4.50292 48.4319 4.50198C49.7614 4.49792 51.065 4.86906 52.193 5.57275C53.321 6.27645 54.2275 7.28413 54.8084 8.47998L54.8331 8.53398C55.5626 10.0665 55.7682 11.7962 55.4181 13.457C55.1069 14.8961 55.278 16.3976 55.9051 17.7298C56.5321 19.062 57.5803 20.1508 58.8876 20.828C60.4361 21.646 61.6656 22.9595 62.3796 24.5585C62.873 25.6382 63.0788 26.8271 62.9771 28.0098C62.8754 29.1925 62.4696 30.3289 61.7991 31.3085C61.1268 32.3152 60.2115 33.1361 59.1379 33.6953C58.0642 34.2545 56.8669 34.5341 55.6566 34.508C53.6838 34.466 51.7622 33.8729 50.1088 32.7958C48.4555 31.7186 47.1366 30.2004 46.3011 28.4127L41.5536 18.335C40.7088 16.552 40.3785 14.5686 40.5999 12.608C40.8214 10.6475 41.5857 8.78765 42.8069 7.23798C43.4751 6.38298 44.3279 5.69448 45.3044 5.21973ZM18.4101 13.538C18.5245 13.4255 18.6629 13.3406 18.8149 13.2895C18.9669 13.2384 19.1286 13.2226 19.2876 13.2432C19.5621 13.2792 19.8074 13.4232 19.9581 13.6527C20.1243 13.8708 20.1971 14.146 20.1606 14.4177C19.958 15.9073 19.2718 17.289 18.2076 18.3507C17.1459 19.4149 15.7642 20.1011 14.2746 20.3037C14.1376 20.327 13.9972 20.3225 13.8619 20.2905C13.7266 20.2585 13.5991 20.1996 13.487 20.1174C13.3749 20.0351 13.2805 19.9311 13.2094 19.8116C13.1383 19.6922 13.092 19.5596 13.0731 19.4219C13.0542 19.2841 13.0633 19.144 13.0996 19.0098C13.136 18.8756 13.199 18.7501 13.2849 18.6407C13.3707 18.5313 13.4777 18.4403 13.5994 18.3731C13.7211 18.3059 13.8551 18.2639 13.9934 18.2495C15.0381 18.1112 16.008 17.6324 16.7532 16.8873C17.4983 16.1421 17.9771 15.1722 18.1154 14.1275C18.1483 13.9046 18.2516 13.6981 18.4101 13.538Z" fill="rgb(255,255,255)" fill-rule="nonzero" />
		<path id="Vector" d="M7.99534 35.1311C10.659 36.0267 13.5204 36.1576 16.2546 35.5089C18.9889 34.8602 21.4866 33.458 23.4641 31.4614L31.3391 23.5864C33.3327 21.6074 34.7327 19.11 35.3808 16.3767C36.029 13.6434 35.8993 10.7833 35.0066 8.11987C34.3868 6.24584 33.3003 4.56034 31.8494 3.22203C30.3986 1.88372 28.631 0.936618 26.7131 0.469871C24.8197 -0.00300032 22.837 0.0138743 20.9519 0.518905C19.0668 1.02394 17.3413 2.0005 15.9378 3.35662L15.7353 3.56587C13.8706 5.44736 12.6666 7.88303 12.3041 10.5071C12.2376 10.9932 12.0142 11.4442 11.6677 11.7915C11.3212 12.1387 10.8707 12.3633 10.3848 12.4309C7.73749 12.7893 5.28208 14.0103 3.39859 15.9049L3.20509 16.1051C1.85527 17.5061 0.884606 19.2279 0.384654 21.1081C-0.115297 22.9882 -0.128055 24.9647 0.347585 26.8511C0.814407 28.7674 1.76173 30.5332 3.1002 31.9819C4.43866 33.4306 6.12187 34.5144 7.99534 35.1311ZM16.7591 11.1349C16.9931 9.44962 17.7716 7.89037 18.9753 6.68887L19.0878 6.56962C19.9388 5.74332 20.9882 5.15008 22.135 4.84703C23.2818 4.54399 24.4873 4.54135 25.6353 4.83937C26.8133 5.12858 27.8984 5.7125 28.7887 6.53627C29.679 7.36005 30.3452 8.39663 30.7248 9.54862C31.3515 11.4194 31.4423 13.4281 30.9871 15.3478C30.5318 17.2675 29.5486 19.0215 28.1486 20.4116L20.2736 28.2866C18.8834 29.6858 17.1297 30.6683 15.2105 31.1232C13.2912 31.578 11.2831 31.4871 9.41284 30.8606C8.26146 30.4816 7.22568 29.8154 6.40328 28.9249C5.58088 28.0344 4.99901 26.949 4.71259 25.7711C4.41411 24.594 4.42816 23.3593 4.75333 22.1892C5.0785 21.0191 5.70353 19.9542 6.56659 19.0999C7.75965 17.8901 9.32152 17.1119 11.0058 16.8881C12.4629 16.6925 13.8153 16.0234 14.8549 14.9839C15.8944 13.9443 16.5635 12.5919 16.7591 11.1349Z" fill="rgb(255,255,255)" fill-rule="nonzero" />
	</g>
</svg>
