<svg viewBox="0 0 48 54" xmlns="http://www.w3.org/2000/svg" xmlns:xlink="http://www.w3.org/1999/xlink" width="48.000000" height="54.000000" fill="none" customFrame="#000000">
	<path id="Vector" d="M24 7.5L42 21L42 48L6 48L6 21L24 7.5ZM24 0L0 18L0 54L48 54L48 18L24 0ZM22.5 19.5L22.5 28.5L21 28.5L21 19.5L18 19.5L18 28.5L16.5 28.5L16.5 19.5L13.5 19.5L13.5 28.5C13.5 30.99 15.51 33 18 33L18 45L21 45L21 33C23.49 33 25.5 30.99 25.5 28.5L25.5 19.5L22.5 19.5ZM27 25.5L27 34.5L30 34.5L30 45L33 45L33 19.5C29.7 19.5 27 22.2 27 25.5Z" fill="rgb(255,255,255)" fill-rule="nonzero" />
</svg>
