<svg viewBox="0 0 26.644 26.644" xmlns="http://www.w3.org/2000/svg" xmlns:xlink="http://www.w3.org/1999/xlink" width="26.644043" height="26.644043" fill="none" customFrame="#000000">
	<path id="Instagram" d="M1.2681 3.4231C0 5.33961 0 8.00041 0 13.322C0 18.6437 0 21.3045 1.2681 23.221C1.83436 24.0768 2.56729 24.8097 3.4231 25.376C5.33961 26.6441 8.00041 26.6441 13.322 26.6441C18.6437 26.6441 21.3045 26.6441 23.221 25.376C24.0768 24.8097 24.8097 24.0768 25.376 23.221C26.6441 21.3045 26.6441 18.6437 26.6441 13.322C26.6441 8.00041 26.6441 5.33961 25.376 3.4231C24.8097 2.56729 24.0768 1.83436 23.221 1.2681C21.3045 0 18.6437 0 13.322 0C8.00041 0 5.33961 0 3.4231 1.2681C2.56729 1.83436 1.83436 2.56729 1.2681 3.4231ZM22.1115 6.07902C22.1115 5.18399 21.3859 4.45843 20.4909 4.45843C19.5959 4.45843 18.8703 5.18399 18.8703 6.07902C18.8703 6.97404 19.5959 7.6996 20.4909 7.6996C21.3859 7.6996 22.1115 6.97404 22.1115 6.07902ZM20.2188 13.3227C20.2188 17.1318 17.1309 20.2197 13.3218 20.2197C9.51272 20.2197 6.42484 17.1318 6.42484 13.3227C6.42484 9.51362 9.51272 6.42574 13.3218 6.42574C17.1309 6.42574 20.2188 9.51362 20.2188 13.3227ZM13.3218 17.8863C15.8422 17.8863 17.8854 15.8431 17.8854 13.3227C17.8854 10.8023 15.8422 8.75918 13.3218 8.75918C10.8014 8.75918 8.75828 10.8023 8.75828 13.3227C8.75828 15.8431 10.8014 17.8863 13.3218 17.8863Z" fill="rgb(214,130,64)" fill-rule="evenodd" />
</svg>
