<svg viewBox="0 0 28.1243 26.644" xmlns="http://www.w3.org/2000/svg" xmlns:xlink="http://www.w3.org/1999/xlink" width="28.124298" height="26.644043" fill="none" customFrame="#000000">
	<rect id="Social Media Icon Square/LinkedIn" width="28.124294" height="26.644068" x="0.000000" y="0.000000" />
	<g id="Group 73">
		<rect id="Social Media Icon" width="53.288136" height="53.288136" x="-12.065308" y="-12.736816" rx="11.841806" opacity="0" fill="rgb(242.331,241.188,255)" />
		<path id="LinkedIn" d="M1.25684 4.16687C1.25684 3.31247 1.55689 2.6076 2.15697 2.05227C2.75706 1.49691 3.53719 1.21924 4.49733 1.21924C5.44034 1.21924 6.2033 1.49262 6.78625 2.03945C7.38633 2.60335 7.68639 3.3381 7.68639 4.24377C7.68639 5.06398 7.39492 5.74747 6.81197 6.2943C6.21189 6.85819 5.42319 7.14014 4.44589 7.14014L4.42018 7.14014C3.47717 7.14014 2.71421 6.85819 2.13126 6.2943C1.5483 5.7304 1.25684 5.02125 1.25684 4.16687ZM1.59117 26.5945L1.59117 9.47262L7.30062 9.47262L7.30062 26.5945L1.59117 26.5945ZM10.464 26.5945L16.1734 26.5945L16.1734 17.0339C16.1734 16.4359 16.242 15.9745 16.3791 15.6498C16.6192 15.0688 16.9835 14.5776 17.4722 14.176C17.9608 13.7744 18.5738 13.5737 19.311 13.5737C21.2313 13.5737 22.1915 14.8638 22.1915 17.444L22.1915 26.5945L27.9009 26.5945L27.9009 16.7776C27.9009 14.2486 27.3008 12.3305 26.1006 11.0233C24.9004 9.71612 23.3145 9.06251 21.3428 9.06251C19.131 9.06251 17.4079 10.0109 16.1734 11.9076L16.1734 11.9589L16.1477 11.9589L16.1734 11.9076L16.1734 9.47262L10.464 9.47262C10.4982 10.0194 10.5154 11.7196 10.5154 14.5733C10.5154 17.427 10.4982 21.434 10.464 26.5945Z" fill="rgb(214,130,64)" fill-rule="nonzero" />
	</g>
</svg>
