<svg viewBox="0 0 108.893 41" xmlns="http://www.w3.org/2000/svg" xmlns:xlink="http://www.w3.org/1999/xlink" width="108.893066" height="41.000000" fill="none" customFrame="#000000">
	<g id="Group 1000002267">
		<rect id="Rectangle 39" width="34.000000" height="41.000000" x="0.000000" y="0.000000" rx="8.000000" fill="rgb(214,130,64)" />
		<g id="Group 1000002257">
			<path id="F" d="M23.8504 8.07812C24.3717 8.07812 24.757 8.10079 25.0064 8.14613C25.2784 8.16879 25.573 8.27079 25.8904 8.45212C26.2304 8.63346 26.4684 8.93946 26.6044 9.37012C26.7404 9.80079 26.8084 10.3788 26.8084 11.1041C26.8084 11.8295 26.7404 12.4075 26.6044 12.8381C26.4684 13.2688 26.2304 13.5748 25.8904 13.7561C25.5504 13.9148 25.2444 14.0168 24.9724 14.0621C24.723 14.0848 24.3264 14.0961 23.7824 14.0961L13.3784 14.0961L13.3784 17.5301L20.0764 17.5301C20.6204 17.5301 21.017 17.5528 21.2664 17.5981C21.5384 17.6208 21.8444 17.7228 22.1844 17.9041C22.7737 18.2441 23.0684 19.1395 23.0684 20.5901C23.0684 22.1768 22.6377 23.1175 21.7764 23.4121C21.4137 23.5255 20.8357 23.5821 20.0424 23.5821L13.3784 23.5821L13.3784 30.0081C13.3784 30.5521 13.3557 30.9488 13.3104 31.1981C13.2877 31.4475 13.2728 31.7276 13.0004 32.0001C12.9058 32.0947 11.7696 32.0001 11.3524 32.0001C9.76569 32.0001 8.83635 31.5695 8.56435 30.7081C8.42835 30.3455 8.36035 29.7675 8.36035 28.9741L8.36035 12.0701C8.36035 10.9141 8.57568 10.1321 9.00635 9.72412C9.43702 9.29346 10.253 9.07812 11.4544 9.07812L23.8504 8.07812Z" fill="rgb(255,255,255)" fill-rule="nonzero" />
			<path id="oodi" d="M53.5003 7.5C54.7225 7.5 54.6574 7.75135 54.5079 8.32913C54.3194 9.0574 53.9967 10.3043 55.9483 12.2201Q57.2702 13.5177 58.0195 15.0885Q59.0003 17.1444 59.0003 19.6681Q59.0003 22.1545 58.0805 24.234L58.0804 24.2343Q57.3636 25.8548 56.0883 27.2281Q54.629 28.7856 52.8322 29.5626Q51.0435 30.3361 48.9203 30.3361Q46.8594 30.3361 45.0939 29.6139Q43.2135 28.8446 41.6683 27.2561Q40.1579 25.6887 39.4161 23.8167L39.4161 23.8166L39.416 23.8165Q38.7003 22.0101 38.7003 19.9201Q38.7003 17.842 39.372 16.0101Q39.4515 15.7934 39.5403 15.5801Q40.3803 13.5361 41.7803 12.1641Q42.3667 11.5895 43.0267 11.118L43.027 11.1178Q43.9428 10.4637 45.0003 10.0081C46.2137 9.48545 52.2123 7.5 53.5003 7.5ZM74.4954 9.81747Q72.8674 9.22412 71.0233 9.22412Q70.3567 9.22412 69.7035 9.31744L69.7028 9.31754Q68.463 9.49476 67.2713 10.0081Q66.2137 10.4637 65.2979 11.1178Q64.6377 11.5894 64.0513 12.1641Q62.6513 13.5361 61.8113 15.5801Q61.7224 15.7934 61.6429 16.0101Q60.9713 17.842 60.9713 19.9201Q60.9713 22.0101 61.687 23.8165L61.687 23.8166L61.6871 23.8168Q62.4289 25.6887 63.9393 27.2561Q65.4844 28.8446 67.3648 29.6139L67.3651 29.614Q69.1305 30.3361 71.1913 30.3361Q73.3145 30.3361 75.1032 29.5626Q76.9 28.7856 78.3593 27.2281Q79.6344 25.8549 80.3512 24.2347L80.3515 24.234Q81.2713 22.1545 81.2713 19.6681Q81.2713 17.1444 80.2905 15.0885Q79.5411 13.5177 78.2193 12.2201Q76.5256 10.5575 74.4956 9.81757L74.4954 9.81747ZM86.1542 9.44812L91.3342 9.47612Q93.0162 9.47612 94.53 9.98072Q96.6702 10.6941 98.4742 12.4161Q99.9618 13.8226 100.731 15.5492Q101.554 17.3973 101.554 19.6121Q101.554 21.6707 100.847 23.4476Q100.092 25.3443 98.5302 26.9201Q97.0407 28.4375 95.2327 29.2005Q93.4043 29.9721 91.2502 29.9721L86.1262 29.9721C84.9875 29.9721 84.2782 29.7388 83.9982 29.2721C83.7742 28.8801 83.6622 28.2828 83.6622 27.4801L83.6622 11.9121C83.6622 11.4641 83.6715 11.1375 83.6902 10.9321C83.7275 10.7268 83.8209 10.4841 83.9702 10.2041C84.2315 9.70012 84.9595 9.44812 86.1542 9.44812ZM103.965 10.9881C103.946 11.1935 103.937 11.5108 103.937 11.9401L103.937 27.5081C103.937 28.1615 103.993 28.6375 104.105 28.9361C104.329 29.6455 105.094 30.0001 106.401 30.0001C107.596 30.0001 108.324 29.7481 108.585 29.2441C108.734 28.9641 108.818 28.7215 108.837 28.5161C108.874 28.3108 108.893 27.9841 108.893 27.5361L108.893 11.9681C108.893 11.3148 108.846 10.8295 108.753 10.5121Q108.704 10.3712 108.625 10.2495Q108.122 9.47612 106.429 9.47612C105.234 9.47612 104.506 9.72812 104.245 10.2321C104.096 10.5121 104.002 10.7641 103.965 10.9881ZM43.6563 19.7801Q43.6563 21.4673 44.3879 22.7309L44.3879 22.7309L44.388 22.7312Q44.737 23.3338 45.2523 23.8401Q46.407 24.9351 47.7457 25.2515L47.746 25.2516Q48.29 25.3801 48.8643 25.3801Q49.4992 25.3801 50.0942 25.2259L50.0943 25.2259Q51.3621 24.8972 52.4483 23.8681Q52.8807 23.4585 53.1959 22.9729L53.1959 22.9729Q54.0443 21.6659 54.0443 19.8081Q54.0443 18.0169 53.2417 16.7238Q52.9026 16.1775 52.4203 15.7201Q51.3168 14.6554 50.026 14.3268Q49.4498 14.1801 48.8363 14.1801Q48.2435 14.1801 47.6854 14.3196L47.6851 14.3197L47.685 14.3197Q46.3722 14.6479 45.2523 15.7481Q44.7528 16.2301 44.4096 16.8054L44.4095 16.8056Q43.6563 18.0683 43.6563 19.7801ZM67.5233 23.8401C66.4593 22.7948 65.9273 21.4415 65.9273 19.7801C65.9273 18.1188 66.4593 16.7748 67.5233 15.7481Q68.6431 14.6479 69.956 14.3197L69.956 14.3197Q70.5142 14.1801 71.1073 14.1801C72.4326 14.1801 73.6273 14.6935 74.6913 15.7201Q75.1736 16.1775 75.5126 16.7238Q76.3153 18.0169 76.3153 19.8081C76.3153 21.5068 75.7832 22.8601 74.7193 23.8681C73.6553 24.8761 72.4606 25.3801 71.1353 25.3801Q70.5608 25.3801 70.0167 25.2515L70.0167 25.2515L70.0166 25.2515Q68.6779 24.9351 67.5233 23.8401ZM91.3342 25.0161C92.6782 25.0161 93.8915 24.5215 94.9742 23.5321C96.0569 22.5241 96.5982 21.2641 96.5982 19.7521C96.5982 18.2401 96.0662 16.9801 95.0022 15.9721Q94.1301 15.1156 93.0847 14.7354Q92.2506 14.4321 91.3062 14.4321L88.6182 14.4321L88.6182 25.0161L91.3342 25.0161Z" fill="rgb(214,130,64)" fill-rule="evenodd" />
		</g>
	</g>
</svg>
